<mxfile host="app.diagrams.net" modified="2023-04-02T17:00:40.589Z" agent="Mozilla/5.0 (Windows NT 10.0; Win64; x64) AppleWebKit/537.36 (KHTML, like Gecko) Chrome/111.0.0.0 Safari/537.36 Edg/111.0.1661.62" etag="07yixcJrgZCPS3v9rMn8" version="21.1.2" type="device">
  <diagram name="Страница 1" id="x3WUslYy6NXl2v0JkQ8S">
    <mxGraphModel dx="792" dy="1138" grid="1" gridSize="10" guides="1" tooltips="1" connect="1" arrows="1" fold="1" page="1" pageScale="1" pageWidth="827" pageHeight="1169" math="0" shadow="0">
      <root>
        <mxCell id="0" />
        <mxCell id="1" parent="0" />
        <mxCell id="VIe7P3iPZ4-MOSokUkFg-3" style="edgeStyle=orthogonalEdgeStyle;rounded=0;orthogonalLoop=1;jettySize=auto;html=1;" edge="1" parent="1" source="VIe7P3iPZ4-MOSokUkFg-1" target="VIe7P3iPZ4-MOSokUkFg-2">
          <mxGeometry relative="1" as="geometry" />
        </mxCell>
        <mxCell id="VIe7P3iPZ4-MOSokUkFg-1" value="Начало&lt;br&gt;setList" style="ellipse;whiteSpace=wrap;html=1;" vertex="1" parent="1">
          <mxGeometry x="354" y="20" width="120" height="80" as="geometry" />
        </mxCell>
        <mxCell id="VIe7P3iPZ4-MOSokUkFg-5" style="edgeStyle=orthogonalEdgeStyle;rounded=0;orthogonalLoop=1;jettySize=auto;html=1;entryX=0.5;entryY=0;entryDx=0;entryDy=0;" edge="1" parent="1" source="VIe7P3iPZ4-MOSokUkFg-2" target="VIe7P3iPZ4-MOSokUkFg-4">
          <mxGeometry relative="1" as="geometry" />
        </mxCell>
        <mxCell id="VIe7P3iPZ4-MOSokUkFg-2" value="&lt;div style=&quot;font-size: 14px; line-height: 19px;&quot;&gt;&lt;span style=&quot;background-color: rgb(255, 255, 255);&quot;&gt;file = fopen(&quot;trainData.dat&quot;, &quot;rb&quot;)&lt;/span&gt;&lt;/div&gt;" style="rounded=0;whiteSpace=wrap;html=1;" vertex="1" parent="1">
          <mxGeometry x="312" y="120" width="204" height="30" as="geometry" />
        </mxCell>
        <mxCell id="VIe7P3iPZ4-MOSokUkFg-7" style="edgeStyle=orthogonalEdgeStyle;rounded=0;orthogonalLoop=1;jettySize=auto;html=1;entryX=0.5;entryY=0;entryDx=0;entryDy=0;" edge="1" parent="1" source="VIe7P3iPZ4-MOSokUkFg-4">
          <mxGeometry relative="1" as="geometry">
            <mxPoint x="414" y="300" as="targetPoint" />
          </mxGeometry>
        </mxCell>
        <mxCell id="VIe7P3iPZ4-MOSokUkFg-34" style="edgeStyle=orthogonalEdgeStyle;rounded=0;orthogonalLoop=1;jettySize=auto;html=1;entryX=0.5;entryY=0;entryDx=0;entryDy=0;" edge="1" parent="1" source="VIe7P3iPZ4-MOSokUkFg-4" target="VIe7P3iPZ4-MOSokUkFg-8">
          <mxGeometry relative="1" as="geometry" />
        </mxCell>
        <mxCell id="VIe7P3iPZ4-MOSokUkFg-48" value="TRUE" style="edgeStyle=orthogonalEdgeStyle;rounded=0;orthogonalLoop=1;jettySize=auto;html=1;" edge="1" parent="1" source="VIe7P3iPZ4-MOSokUkFg-4">
          <mxGeometry relative="1" as="geometry">
            <mxPoint x="414" y="1060" as="targetPoint" />
            <Array as="points">
              <mxPoint x="60" y="195" />
              <mxPoint x="60" y="1060" />
            </Array>
          </mxGeometry>
        </mxCell>
        <mxCell id="VIe7P3iPZ4-MOSokUkFg-4" value="!file" style="rhombus;whiteSpace=wrap;html=1;" vertex="1" parent="1">
          <mxGeometry x="382" y="170" width="64" height="50" as="geometry" />
        </mxCell>
        <mxCell id="VIe7P3iPZ4-MOSokUkFg-11" style="edgeStyle=orthogonalEdgeStyle;rounded=0;orthogonalLoop=1;jettySize=auto;html=1;entryX=0.5;entryY=0;entryDx=0;entryDy=0;" edge="1" parent="1" source="VIe7P3iPZ4-MOSokUkFg-8" target="VIe7P3iPZ4-MOSokUkFg-10">
          <mxGeometry relative="1" as="geometry" />
        </mxCell>
        <mxCell id="VIe7P3iPZ4-MOSokUkFg-8" value="&lt;div style=&quot;font-family: Consolas, &amp;quot;Courier New&amp;quot;, monospace; font-size: 14px; line-height: 19px;&quot;&gt;&lt;span style=&quot;background-color: rgb(255, 255, 255);&quot;&gt;fseek(file, 0, 2)&lt;/span&gt;&lt;/div&gt;" style="rounded=0;whiteSpace=wrap;html=1;" vertex="1" parent="1">
          <mxGeometry x="347" y="240" width="134" height="30" as="geometry" />
        </mxCell>
        <mxCell id="VIe7P3iPZ4-MOSokUkFg-13" style="edgeStyle=orthogonalEdgeStyle;rounded=0;orthogonalLoop=1;jettySize=auto;html=1;" edge="1" parent="1" source="VIe7P3iPZ4-MOSokUkFg-10" target="VIe7P3iPZ4-MOSokUkFg-12">
          <mxGeometry relative="1" as="geometry" />
        </mxCell>
        <mxCell id="VIe7P3iPZ4-MOSokUkFg-10" value="&lt;div style=&quot;font-size: 14px; line-height: 19px;&quot;&gt;&lt;span style=&quot;background-color: rgb(255, 255, 255);&quot;&gt;int trainCount = ftell(file)/sizeof(struct trainList)&lt;/span&gt;&lt;/div&gt;" style="rounded=0;whiteSpace=wrap;html=1;" vertex="1" parent="1">
          <mxGeometry x="267" y="290" width="294" height="30" as="geometry" />
        </mxCell>
        <mxCell id="VIe7P3iPZ4-MOSokUkFg-15" style="edgeStyle=orthogonalEdgeStyle;rounded=0;orthogonalLoop=1;jettySize=auto;html=1;entryX=0.5;entryY=0;entryDx=0;entryDy=0;" edge="1" parent="1" source="VIe7P3iPZ4-MOSokUkFg-12" target="VIe7P3iPZ4-MOSokUkFg-14">
          <mxGeometry relative="1" as="geometry" />
        </mxCell>
        <mxCell id="VIe7P3iPZ4-MOSokUkFg-12" value="rewind(file)" style="rounded=0;whiteSpace=wrap;html=1;" vertex="1" parent="1">
          <mxGeometry x="354" y="340" width="120" height="30" as="geometry" />
        </mxCell>
        <mxCell id="VIe7P3iPZ4-MOSokUkFg-17" style="edgeStyle=orthogonalEdgeStyle;rounded=0;orthogonalLoop=1;jettySize=auto;html=1;" edge="1" parent="1" source="VIe7P3iPZ4-MOSokUkFg-14" target="VIe7P3iPZ4-MOSokUkFg-16">
          <mxGeometry relative="1" as="geometry" />
        </mxCell>
        <mxCell id="VIe7P3iPZ4-MOSokUkFg-45" style="edgeStyle=orthogonalEdgeStyle;rounded=0;orthogonalLoop=1;jettySize=auto;html=1;entryX=0.5;entryY=0;entryDx=0;entryDy=0;" edge="1" parent="1" source="VIe7P3iPZ4-MOSokUkFg-14" target="VIe7P3iPZ4-MOSokUkFg-44">
          <mxGeometry relative="1" as="geometry">
            <Array as="points">
              <mxPoint x="560" y="408" />
              <mxPoint x="560" y="1010" />
              <mxPoint x="413" y="1010" />
            </Array>
          </mxGeometry>
        </mxCell>
        <mxCell id="VIe7P3iPZ4-MOSokUkFg-14" value="&lt;div style=&quot;font-size: 14px; line-height: 19px;&quot;&gt;&lt;span style=&quot;background-color: rgb(255, 255, 255);&quot;&gt;i = 0; i &amp;lt; trainCount; i++&lt;/span&gt;&lt;/div&gt;" style="shape=hexagon;perimeter=hexagonPerimeter2;whiteSpace=wrap;html=1;fixedSize=1;" vertex="1" parent="1">
          <mxGeometry x="327" y="390" width="174" height="35" as="geometry" />
        </mxCell>
        <mxCell id="VIe7P3iPZ4-MOSokUkFg-19" value="TRUE" style="edgeStyle=orthogonalEdgeStyle;rounded=0;orthogonalLoop=1;jettySize=auto;html=1;entryX=0.5;entryY=0;entryDx=0;entryDy=0;" edge="1" parent="1" source="VIe7P3iPZ4-MOSokUkFg-16" target="VIe7P3iPZ4-MOSokUkFg-18">
          <mxGeometry relative="1" as="geometry">
            <Array as="points">
              <mxPoint x="313" y="490" />
            </Array>
          </mxGeometry>
        </mxCell>
        <mxCell id="VIe7P3iPZ4-MOSokUkFg-21" style="edgeStyle=orthogonalEdgeStyle;rounded=0;orthogonalLoop=1;jettySize=auto;html=1;entryX=0.5;entryY=0;entryDx=0;entryDy=0;" edge="1" parent="1" source="VIe7P3iPZ4-MOSokUkFg-16" target="VIe7P3iPZ4-MOSokUkFg-20">
          <mxGeometry relative="1" as="geometry" />
        </mxCell>
        <mxCell id="VIe7P3iPZ4-MOSokUkFg-16" value="!feadTrain" style="rhombus;whiteSpace=wrap;html=1;" vertex="1" parent="1">
          <mxGeometry x="373" y="450" width="80" height="80" as="geometry" />
        </mxCell>
        <mxCell id="VIe7P3iPZ4-MOSokUkFg-22" style="edgeStyle=orthogonalEdgeStyle;rounded=0;orthogonalLoop=1;jettySize=auto;html=1;" edge="1" parent="1" source="VIe7P3iPZ4-MOSokUkFg-18">
          <mxGeometry relative="1" as="geometry">
            <mxPoint x="419" y="610" as="targetPoint" />
            <Array as="points">
              <mxPoint x="313" y="610" />
            </Array>
          </mxGeometry>
        </mxCell>
        <mxCell id="VIe7P3iPZ4-MOSokUkFg-18" value="&lt;div style=&quot;font-size: 14px; line-height: 19px;&quot;&gt;&lt;span style=&quot;background-color: rgb(255, 255, 255);&quot;&gt;readTrain = (struct trainList*)malloc(sizeof(struct trainList))&lt;/span&gt;&lt;/div&gt;" style="rounded=0;whiteSpace=wrap;html=1;" vertex="1" parent="1">
          <mxGeometry x="253" y="530" width="120" height="60" as="geometry" />
        </mxCell>
        <mxCell id="VIe7P3iPZ4-MOSokUkFg-24" style="edgeStyle=orthogonalEdgeStyle;rounded=0;orthogonalLoop=1;jettySize=auto;html=1;" edge="1" parent="1" source="VIe7P3iPZ4-MOSokUkFg-20" target="VIe7P3iPZ4-MOSokUkFg-23">
          <mxGeometry relative="1" as="geometry" />
        </mxCell>
        <mxCell id="VIe7P3iPZ4-MOSokUkFg-20" value="&lt;div style=&quot;font-size: 14px; line-height: 19px;&quot;&gt;&lt;span style=&quot;background-color: rgb(255, 255, 255);&quot;&gt;fread(readTrain, sizeof(struct trainList), 1, file)&lt;/span&gt;&lt;/div&gt;" style="rounded=0;whiteSpace=wrap;html=1;" vertex="1" parent="1">
          <mxGeometry x="353" y="630" width="120" height="60" as="geometry" />
        </mxCell>
        <mxCell id="VIe7P3iPZ4-MOSokUkFg-26" value="TRUE" style="edgeStyle=orthogonalEdgeStyle;rounded=0;orthogonalLoop=1;jettySize=auto;html=1;entryX=0.5;entryY=0;entryDx=0;entryDy=0;" edge="1" parent="1" source="VIe7P3iPZ4-MOSokUkFg-23" target="VIe7P3iPZ4-MOSokUkFg-25">
          <mxGeometry relative="1" as="geometry">
            <Array as="points">
              <mxPoint x="313" y="730" />
            </Array>
          </mxGeometry>
        </mxCell>
        <mxCell id="VIe7P3iPZ4-MOSokUkFg-28" style="edgeStyle=orthogonalEdgeStyle;rounded=0;orthogonalLoop=1;jettySize=auto;html=1;entryX=0.5;entryY=0;entryDx=0;entryDy=0;" edge="1" parent="1" source="VIe7P3iPZ4-MOSokUkFg-23" target="VIe7P3iPZ4-MOSokUkFg-27">
          <mxGeometry relative="1" as="geometry" />
        </mxCell>
        <mxCell id="VIe7P3iPZ4-MOSokUkFg-23" value="!trainList" style="rhombus;whiteSpace=wrap;html=1;" vertex="1" parent="1">
          <mxGeometry x="373" y="710" width="80" height="40" as="geometry" />
        </mxCell>
        <mxCell id="VIe7P3iPZ4-MOSokUkFg-38" style="edgeStyle=orthogonalEdgeStyle;rounded=0;orthogonalLoop=1;jettySize=auto;html=1;" edge="1" parent="1" source="VIe7P3iPZ4-MOSokUkFg-25">
          <mxGeometry relative="1" as="geometry">
            <mxPoint x="420" y="810" as="targetPoint" />
            <Array as="points">
              <mxPoint x="313" y="810" />
            </Array>
          </mxGeometry>
        </mxCell>
        <mxCell id="VIe7P3iPZ4-MOSokUkFg-25" value="trainList = readTrain" style="rounded=0;whiteSpace=wrap;html=1;" vertex="1" parent="1">
          <mxGeometry x="253" y="740" width="120" height="60" as="geometry" />
        </mxCell>
        <mxCell id="VIe7P3iPZ4-MOSokUkFg-40" style="edgeStyle=orthogonalEdgeStyle;rounded=0;orthogonalLoop=1;jettySize=auto;html=1;entryX=0.5;entryY=0;entryDx=0;entryDy=0;" edge="1" parent="1" source="VIe7P3iPZ4-MOSokUkFg-31" target="VIe7P3iPZ4-MOSokUkFg-39">
          <mxGeometry relative="1" as="geometry" />
        </mxCell>
        <mxCell id="VIe7P3iPZ4-MOSokUkFg-31" value="&lt;div style=&quot;font-size: 14px; line-height: 19px;&quot;&gt;&lt;span style=&quot;background-color: rgb(255, 255, 255);&quot;&gt;readTrain-&amp;gt;next = (struct trainList*)malloc(sizeof(struct trainList))&lt;/span&gt;&lt;/div&gt;" style="rounded=0;whiteSpace=wrap;html=1;" vertex="1" parent="1">
          <mxGeometry x="110.5" y="870" width="204" height="70" as="geometry" />
        </mxCell>
        <mxCell id="VIe7P3iPZ4-MOSokUkFg-41" value="TRUE" style="edgeStyle=orthogonalEdgeStyle;rounded=0;orthogonalLoop=1;jettySize=auto;html=1;entryX=0.5;entryY=0;entryDx=0;entryDy=0;" edge="1" parent="1" source="VIe7P3iPZ4-MOSokUkFg-27" target="VIe7P3iPZ4-MOSokUkFg-31">
          <mxGeometry relative="1" as="geometry">
            <Array as="points">
              <mxPoint x="213" y="855" />
            </Array>
          </mxGeometry>
        </mxCell>
        <mxCell id="VIe7P3iPZ4-MOSokUkFg-43" style="edgeStyle=orthogonalEdgeStyle;rounded=0;orthogonalLoop=1;jettySize=auto;html=1;entryX=0;entryY=0.5;entryDx=0;entryDy=0;" edge="1" parent="1" source="VIe7P3iPZ4-MOSokUkFg-27" target="VIe7P3iPZ4-MOSokUkFg-14">
          <mxGeometry relative="1" as="geometry">
            <Array as="points">
              <mxPoint x="413" y="1000" />
              <mxPoint x="90" y="1000" />
              <mxPoint x="90" y="408" />
            </Array>
          </mxGeometry>
        </mxCell>
        <mxCell id="VIe7P3iPZ4-MOSokUkFg-27" value="i &amp;lt; trainCount - 1" style="rhombus;whiteSpace=wrap;html=1;" vertex="1" parent="1">
          <mxGeometry x="358" y="830" width="110" height="50" as="geometry" />
        </mxCell>
        <mxCell id="VIe7P3iPZ4-MOSokUkFg-39" value="&lt;div style=&quot;font-size: 14px; line-height: 19px;&quot;&gt;&lt;span style=&quot;background-color: rgb(255, 255, 255);&quot;&gt;readTrain = readTrain-&amp;gt;next&lt;/span&gt;&lt;/div&gt;" style="rounded=0;whiteSpace=wrap;html=1;" vertex="1" parent="1">
          <mxGeometry x="121" y="960" width="183" height="30" as="geometry" />
        </mxCell>
        <mxCell id="VIe7P3iPZ4-MOSokUkFg-47" style="edgeStyle=orthogonalEdgeStyle;rounded=0;orthogonalLoop=1;jettySize=auto;html=1;entryX=0.5;entryY=0;entryDx=0;entryDy=0;" edge="1" parent="1" source="VIe7P3iPZ4-MOSokUkFg-44" target="VIe7P3iPZ4-MOSokUkFg-46">
          <mxGeometry relative="1" as="geometry" />
        </mxCell>
        <mxCell id="VIe7P3iPZ4-MOSokUkFg-44" value="fclose(file)" style="rounded=0;whiteSpace=wrap;html=1;" vertex="1" parent="1">
          <mxGeometry x="353" y="1030" width="120" height="20" as="geometry" />
        </mxCell>
        <mxCell id="VIe7P3iPZ4-MOSokUkFg-46" value="Конец" style="ellipse;whiteSpace=wrap;html=1;" vertex="1" parent="1">
          <mxGeometry x="353" y="1080" width="120" height="80" as="geometry" />
        </mxCell>
      </root>
    </mxGraphModel>
  </diagram>
</mxfile>
